General
Complete name                            : 18th Annual Color Screen Awards  Main Event  (HQ XviD) 22 Jan 2012\18th Annual Color Screen Awards  Main Event  (HQ XviD) 22 Jan 2012.avi
Format                                   : AVI
Format/Info                              : Audio Video Interleave
File size                                : 1.93 GiB
Duration                                 : 2h 42mn
Overall bit rate                         : 1 700 Kbps

Video
ID                                       : 0
Format                                   : MPEG-4 Visual
Format profile                           : Advanced Simple@L5
Format settings, BVOP                    : No
Format settings, QPel                    : No
Format settings, GMC                     : No warppoints
Format settings, Matrix                  : Default (H.263)
Codec ID                                 : XVID
Codec ID/Hint                            : XviD
Duration                                 : 2h 42mn
Bit rate                                 : 1 500 Kbps
Width                                    : 512 pixels
Height                                   : 392 pixels
Display aspect ratio                     : 4:3
Frame rate                               : 29.970 fps
Color space                              : YUV
Chroma subsampling                       : 4:2:0
Bit depth                                : 8 bits
Scan type                                : Progressive
Compression mode                         : Lossy
Bits/(Pixel*Frame)                       : 0.249
Stream size                              : 1.70 GiB (88%)
Writing library                          : XviD 1.2.1 (UTC 2008-12-04)

Audio
ID                                       : 1
Format                                   : MPEG Audio
Format version                           : Version 1
Format profile                           : Layer 3
Codec ID                                 : 55
Codec ID/Hint                            : MP3
Duration                                 : 2h 42mn
Bit rate mode                            : Constant
Bit rate                                 : 192 Kbps
Channel(s)                               : 2 channels
Sampling rate                            : 44.1 KHz
Compression mode                         : Lossy
Stream size                              : 223 MiB (11%)
Alignment                                : Split accross interleaves
Interleave, duration                     : 67 ms (2.00 video frames)

 
http://i1126.photobucket.com/albums/l610/arsenal40/1-34.jpg 
http://i1126.photobucket.com/albums/l610/arsenal40/33.gif 
http://i1126.photobucket.com/albums/l610/arsenal40/34.gif